General
Count                                    : 331
Count of stream of this kind             : 1
Kind of stream                           : General
Kind of stream                           : General
Stream identifier                        : 0
Count of audio streams                   : 1
Audio_Format_List                        : AAC LC
Audio_Format_WithHint_List               : AAC LC
Audio codecs                             : AAC LC
Audio_Language_List                      : English
Complete name                            : test_data/sample1.m4a
Folder name                              : test_data
File name extension                      : sample1.m4a
File name                                : sample1
File extension                           : m4a
Format                                   : MPEG-4
Format                                   : MPEG-4
Format/Extensions usually used           : braw mov mp4 m4v m4a m4b m4p m4r 3ga 3gpa 3gpp 3gp 3gpp2 3g2 k3g jpm jpx mqv ismv isma ismt f4a f4b f4v
Commercial name                          : MPEG-4
Internet media type                      : audio/mp4
Codec ID                                 : M4V 
Codec ID                                 : M4V  (isom/iso2/avc1)
CodecID_Compatible                       : isom/iso2/avc1
File size                                : 450690
File size                                : 440 KiB
File size                                : 440 KiB
File size                                : 440 KiB
File size                                : 440 KiB
File size                                : 440.1 KiB
Duration                                 : 12005
Duration                                 : 12 s 5 ms
Duration                                 : 12 s 5 ms
Duration                                 : 12 s 5 ms
Duration                                 : 00:00:12.005
Duration                                 : 00:00:12.005
Overall bit rate mode                    : CBR
Overall bit rate mode                    : Constant
Overall bit rate                         : 300335
Overall bit rate                         : 300 kb/s
Stream size                              : 3246
Stream size                              : 3.17 KiB (1%)
Stream size                              : 3 KiB
Stream size                              : 3.2 KiB
Stream size                              : 3.17 KiB
Stream size                              : 3.170 KiB
Stream size                              : 3.17 KiB (1%)
Proportion of this stream                : 0.00720
HeaderSize                               : 36
DataSize                                 : 447452
FooterSize                               : 3202
IsStreamable                             : No
Title                                    : Infinite Pursuit
Album                                    : Fables
Album/Performer                          : Jean-Luc Ponty
Part/Position                            : 1
Part/Total                               : 1
Track name                               : Infinite Pursuit
Track name/Position                      : 1
Track name/Total                         : 7
Performer                                : Jean-Luc Ponty
Composer                                 : Jean-Luc Ponty
Genre                                    : Jazz
ContentType                              : Music
Recorded date                            : UTC 1985-01-01 12:00:00
File last modification date              : UTC 2020-05-21 04:21:06
File last modification date (local)      : 2020-05-20 23:21:06
Writing application                      : Lavf57.83.100
Writing application                      : Lavf57.83.100

Audio
Count                                    : 280
Count of stream of this kind             : 1
Kind of stream                           : Audio
Kind of stream                           : Audio
Stream identifier                        : 0
StreamOrder                              : 0
ID                                       : 2
ID                                       : 2
Format                                   : AAC
Format                                   : AAC LC
Format/Info                              : Advanced Audio Codec Low Complexity
Commercial name                          : AAC
Format_AdditionalFeatures                : LC
Codec ID                                 : mp4a-40-2
Duration                                 : 12005
Duration                                 : 12 s 5 ms
Duration                                 : 12 s 5 ms
Duration                                 : 12 s 5 ms
Duration                                 : 00:00:12.005
Duration                                 : 00:00:12:01
Duration                                 : 00:00:12.005 (00:00:12:01)
Bit rate mode                            : CBR
Bit rate mode                            : Constant
Bit rate                                 : 298178
Bit rate                                 : 298 kb/s
Channel(s)                               : 2
Channel(s)                               : 2 channels
Channel positions                        : Front: L R
Channel positions                        : 2/0/0
Channel layout                           : L R
Samples per frame                        : 1024
Sampling rate                            : 44100
Sampling rate                            : 44.1 kHz
Samples count                            : 529420
Frame rate                               : 43.066
Frame rate                               : 43.066 FPS (1024 SPF)
Frame count                              : 517
Compression mode                         : Lossy
Compression mode                         : Lossy
Stream size                              : 447444
Stream size                              : 437 KiB (99%)
Stream size                              : 437 KiB
Stream size                              : 437 KiB
Stream size                              : 437 KiB
Stream size                              : 437.0 KiB
Stream size                              : 437 KiB (99%)
Proportion of this stream                : 0.99280
Language                                 : en
Language                                 : English
Language                                 : English
Language                                 : en
Language                                 : eng
Language                                 : en
Default                                  : Yes
Default                                  : Yes
Alternate group                          : 1
Alternate group                          : 1


